<svg version="1.1" id="Layer_1" xmlns="http://www.w3.org/2000/svg" xmlns:xlink="http://www.w3.org/1999/xlink" x="0px" y="0px"
	 viewBox="0 0 293.1 84.1" enable-background="new 0 0 293.1 84.1" xml:space="preserve">
<path fill="#00274D" d="M82.9,25.1c0-7.7,2.5-14.6,13-14.6c7.6,0,11.1,3.8,11.1,10v4.5h-7.2v-2.8c0-3.5-1.2-5.7-4.4-5.7
	c-4,0-4.8,2.8-4.8,9.5v27.1c0,6.5,2.1,7.7,4.5,7.7c2.8,0,4.7-2,4.7-6.6v-2h7.2v4.3c0,5.8-2.4,10.3-11.3,10.3
	c-9.7,0-12.8-5.1-12.8-13.7V25.1z M112.3,66.4h7.7l2.5-14.1h12l2.5,14.1h7.7L133.4,11h-8.9L112.3,66.4z M128.5,19.1h0.2l4.8,26.7
	h-9.7L128.5,19.1z M151.8,66.4h6.7v-49h0.2l8.6,49h7.7l7.8-49h0.2v49h7.2V11h-12.2l-6.7,40.1H171L164.5,11h-12.7V66.4z M198.9,66.4
	h12c11.2,0,12.7-3.8,12.7-15.8c0-9.4-1.2-11.5-7.4-12.6v-0.2c5.2-0.7,7-2.5,7-13.3c0-10.1-1.6-13.4-11-13.4h-13.3V66.4z M206.6,17
	h3.6c4.9,0,5.9,1.5,5.9,7.8c0,9-0.5,10-5.1,10h-4.4V17z M206.6,40.8h5c4.2,0,4.9,1.2,4.9,9.6c0,8.7-0.8,10-5.1,10h-4.8V40.8z
	 M232.1,66.4h7.7V11h-7.7V66.4z M247,66.4h7.7l2.5-14.1h12l2.5,14.1h7.7L268.1,11h-8.9L247,66.4z M263.2,19.1h0.2l4.8,26.7h-9.7
	L263.2,19.1z"/>
<path fill="#00274D" d="M122.4,78.4h-4.5v3.3h-1v-7h1v3h4.5v-3h1v7h-1V78.4z M125.7,81.6h5.4v-0.8h-4.3v-2.4h4v-0.8h-4v-2.2h4.2
	v-0.8h-5.2V81.6z M139.9,81.6h1.2l-3.6-7h-1.2l-3.6,7h1.1l0.9-1.8h4.3L139.9,81.6z M135.1,79l1.8-3.5l1.7,3.5H135.1z M142.9,81.6h5
	v-0.8h-4v-6.2h-1V81.6z M152.1,81.6h1v-6.1h3v-0.9h-6.9v0.9h3V81.6z M163.6,81.7h1v-7h-1v2.9h-4.5v-2.9h-1v7h1v-3.3h4.5V81.7z
	 M177.7,76.5c-0.1-1.6-1.6-2-3.1-2c-1.9,0-3.1,0.8-3.1,2.1c0,2.9,5.4,1.2,5.4,3.1c0,0.8-0.8,1.3-2.3,1.3c-1.3,0-2.2-0.5-2.3-1.5
	h-1.1c0.1,1.5,1.3,2.3,3.3,2.3c2.1,0,3.3-0.8,3.3-2.2c0-0.9-0.5-1.5-1.7-1.7l-2.6-0.4c-0.9-0.1-1.1-0.5-1.1-0.9
	c0-0.8,0.8-1.3,1.8-1.3c1.1,0,2.1,0.3,2.2,1.3H177.7z M184,74.4c-2.9,0-3.9,2-3.9,3.7c0,1.7,1,3.7,3.9,3.7c2.9,0,3.9-2,3.9-3.7
	C187.9,76.4,186.9,74.4,184,74.4 M184,81c-1.7,0-2.9-1.2-2.9-2.9c0-1.7,1.2-2.9,2.9-2.9c1.7,0,2.9,1.2,2.9,2.9
	C186.9,79.8,185.7,81,184,81 M190.1,81.6h5v-0.8h-4v-6.2h-1V81.6z M202.8,78.8c0,1.3-0.8,2.2-2.3,2.2c-1.4,0-2.2-0.8-2.2-2.2v-4.2
	h-1v4.2c0,2,1.4,3,3.3,3c1.9,0,3.3-1,3.3-3v-4.2h-1V78.8z M208.8,81.6h1v-6.1h3v-0.9h-6.9v0.9h3V81.6z M214.8,81.6h1v-7h-1V81.6z
	 M221.6,74.4c-2.9,0-3.9,2-3.9,3.7c0,1.7,1,3.7,3.9,3.7c2.9,0,3.9-2,3.9-3.7C225.6,76.4,224.6,74.4,221.6,74.4 M221.6,81
	c-1.7,0-2.9-1.2-2.9-2.9c0-1.7,1.2-2.9,2.9-2.9c1.7,0,2.9,1.2,2.9,2.9C224.5,79.8,223.3,81,221.6,81 M233.3,80.6L233.3,80.6l-4.3-6
	h-1.4v7h1v-6h0l4.3,6h1.4v-7h-1V80.6z M242.6,76.5c-0.1-1.6-1.6-2-3.1-2c-1.9,0-3.1,0.8-3.1,2.1c0,2.9,5.4,1.2,5.4,3.1
	c0,0.8-0.8,1.3-2.3,1.3c-1.3,0-2.2-0.5-2.3-1.5h-1.1c0.1,1.5,1.3,2.3,3.3,2.3c2.1,0,3.3-0.8,3.3-2.2c0-0.9-0.5-1.5-1.7-1.7l-2.6-0.4
	c-0.9-0.1-1.1-0.5-1.1-0.9c0-0.8,0.8-1.3,1.8-1.3c1.1,0,2.1,0.3,2.2,1.3H242.6z"/>
<path fill="#00274D" d="M74.2,38.7c0-19.9-16.1-35.9-35.9-35.9C18.4,2.8,2.4,18.8,2.4,38.7c0,19.8,16.1,35.9,35.9,35.9
	C58.1,74.6,74.2,58.5,74.2,38.7 M68.2,43.3c0,16.5-13.4,29.8-29.9,29.8s-30-13.3-30-29.8c0-16.6,13.5-30,30-30S68.2,26.7,68.2,43.3"
	/>
<path fill="#006990" d="M62.2,39.3c0-13.2-10.7-23.9-23.9-23.9c-13.2,0-24,10.7-24,23.9c0,13.2,10.8,24,24,24
	C51.5,63.3,62.2,52.5,62.2,39.3 M56.3,43.9c0,9.9-8.1,18-18,18c-10,0-18-8.1-18-18c0-10.1,8-18,18-18C48.2,25.9,56.3,33.8,56.3,43.9
	"/>
<path fill="#5C8727" d="M50.3,40c0-6.6-5.4-11.9-11.9-11.9c-6.6,0-12,5.4-12,11.9c0,6.6,5.4,12,12,12C44.9,52,50.3,46.6,50.3,40
	 M38.2,50.5c-3.3,0-6-2.7-6-5.9c0-3.4,2.7-6.1,6-6.1c3.3,0,5.9,2.7,5.9,6.1C44.2,47.8,41.6,50.5,38.2,50.5"/>
<path fill="#00274C" d="M283.2,14.8c0,2.1-1.7,3.8-3.8,3.8c-2,0-3.8-1.7-3.8-3.8c0-2.1,1.8-3.8,3.8-3.8
	C281.5,11,283.2,12.7,283.2,14.8z M276,14.8c0,1.9,1.5,3.4,3.3,3.4c1.8,0,3.3-1.5,3.3-3.4c0-1.8-1.4-3.3-3.3-3.3
	C277.6,11.5,276,13,276,14.8z M278,12.7h1.4c0.3,0,1.4,0,1.4,1c0,0.1,0,0.8-0.8,1c0.4,0.1,0.6,0.3,0.6,0.8c0.1,0.5,0.1,0.9,0.2,1.3
	h-0.6c-0.1-0.3-0.1-0.4-0.2-1.1c-0.1-0.6-0.2-0.8-0.9-0.8h-0.7v1.8H278V12.7z M278.6,14.5h0.9c0.3,0,0.8,0,0.8-0.6
	c0-0.6-0.5-0.6-0.8-0.6h-0.9V14.5z"/>
</svg>
